# xmcd
#
# Track frame offsets: 
#        150
#        15212
#        29350
#        45862
#        73807
#        86850
#        105982
#        121580
#        140927
#        160517
#        181937
#
# Disc length: 2651 seconds
#
# Revision: 7
# Processed by: cddbd v1.5.2PL0 Copyright (c) Steve Scherf et al.
# Submitted via: ExactAudioCopy v1.3
#
DISCID=7f0a590b
DTITLE=Gino Vannelli - Classics Vol. 7
DYEAR=1987
DGENRE=Rock
TTITLE0=People Gotta Move
TTITLE1=Mama Coco
TTITLE2=I Just Wanna Stop
TTITLE3=Powerful People
TTITLE4=Crazy Life
TTITLE5=Love Of My Life
TTITLE6=Fly Into This Night
TTITLE7=Wheels Of Life
TTITLE8=One Night With You
TTITLE9=Appaloosa
TTITLE10=Love Me Now
EXTD=YEAR: 1987
EXTT0=
EXTT1=
EXTT2=
EXTT3=
EXTT4=
EXTT5=
EXTT6=
EXTT7=
EXTT8=
EXTT9=
EXTT10=
PLAYORDER=
